<svg width="16" height="18" viewBox="0 0 16 18" fill="none" xmlns="http://www.w3.org/2000/svg">
<g clip-path="url(#clip0_3398_701)">
<path d="M15.4898 9.61178C15.6551 9.45357 15.75 9.23209 15.75 9.00006C15.75 8.76803 15.6551 8.55006 15.4898 8.38834L9.30234 2.48209C8.96484 2.15865 8.43047 2.17271 8.11055 2.51021C7.79062 2.84771 7.80117 3.38209 8.13867 3.70201L12.8004 8.15631H0.84375C0.376172 8.15631 0 8.53248 0 9.00006C0 9.46764 0.376172 9.84381 0.84375 9.84381H12.8004L8.13516 14.2946C7.79766 14.618 7.78711 15.1489 8.10703 15.4864C8.42695 15.8239 8.96133 15.8344 9.29883 15.5145L15.4863 9.60826L15.4898 9.61178Z" fill="white"/>
</g>
<defs>
<clipPath id="clip0_3398_701">
<rect width="15.75" height="18" fill="white"/>
</clipPath>
</defs>
</svg>
