<svg width="252" height="36" viewBox="0 0 252 36" fill="none" xmlns="http://www.w3.org/2000/svg">
<path d="M18 36C27.9411 36 36 27.9411 36 18C36 8.05887 27.9411 0 18 0C8.05887 0 0 8.05887 0 18C0 27.9411 8.05887 36 18 36Z" fill="#E3FF53"/>
<path fill-rule="evenodd" clip-rule="evenodd" d="M30.3047 18C30.3053 19.0925 30.16 20.1803 29.8727 21.2344H23.9966C24.0996 20.1867 24.1529 19.1029 24.1529 18C24.1529 16.8971 24.0996 15.8133 23.9966 14.7656H29.8727C30.16 15.8197 30.3052 16.9075 30.3047 18ZM18 30.3047C18.9914 30.3047 20.0796 29.0649 20.9102 26.9888C21.3765 25.8236 21.7404 24.468 21.9912 22.992H14.0086C14.2597 24.468 14.6241 25.8236 15.0896 26.9888C15.9202 29.0649 17.0086 30.3047 18 30.3047ZM13.7699 21.2344C13.5501 19.0837 13.5501 16.9163 13.7699 14.7656H22.2304C22.3413 15.8402 22.3964 16.9197 22.3952 18C22.3964 19.0803 22.3414 20.1598 22.2304 21.2344H13.7699ZM5.69531 18C5.69484 16.9074 5.84019 15.8197 6.12753 14.7656H12.0038C11.9007 15.8133 11.8472 16.8974 11.8472 18C11.8472 19.1026 11.9007 20.1867 12.0038 21.2344H6.12753C5.84016 20.1803 5.6948 19.0926 5.69531 18ZM18 5.69531C17.0086 5.69531 15.9201 6.93478 15.0895 9.01167C14.6239 10.1772 14.2598 11.5317 14.0085 13.008H21.9914C21.7406 11.5314 21.3766 10.1772 20.9104 9.01167C20.0798 6.93478 18.9914 5.69531 18 5.69531ZM14.5835 6.17878C14.1323 6.86379 13.7548 7.59463 13.4574 8.3591C12.916 9.71304 12.5011 11.2929 12.2288 13.008H6.75429C7.48569 11.3698 8.56483 9.91041 9.91681 8.73113C11.2688 7.55185 12.8612 6.68092 14.5835 6.17878ZM6.75429 22.9922H12.2288C12.5014 24.707 12.9161 26.287 13.4574 27.641C13.7549 28.4057 14.1324 29.1369 14.5835 29.8223C12.8611 29.32 11.2686 28.4489 9.91667 27.2695C8.56469 26.0901 7.4856 24.6305 6.75429 22.9922ZM21.4172 29.8221C21.8682 29.1369 22.2453 28.4057 22.5422 27.6409C23.0836 26.2869 23.4989 24.7068 23.7713 22.992H29.2459C28.5147 24.6304 27.4357 26.0899 26.0838 27.2694C24.7319 28.4488 23.1395 29.3199 21.4172 29.8221ZM29.2459 13.0078H23.7713C23.4989 11.2927 23.0839 9.7129 22.5422 8.35896C22.2455 7.59438 21.8684 6.86351 21.4172 6.17864C23.1395 6.68078 24.7318 7.55172 26.0837 8.731C27.4356 9.91029 28.5146 11.3697 29.2459 13.0078Z" fill="black"/>
<path d="M69.17 26.167L52.959 9.724L53.771 9.927L53.829 25.5H51.016V3.895H51.161L67.198 20.396L66.531 20.251L66.473 4.533H69.257V26.167H69.17ZM77.2875 25.79C76.1662 25.79 75.1415 25.5483 74.2135 25.065C73.3048 24.5817 72.5798 23.876 72.0385 22.948C71.5165 22.0007 71.2555 20.8503 71.2555 19.497C71.2555 18.163 71.5358 17.0127 72.0965 16.046C72.6572 15.06 73.4015 14.306 74.3295 13.784C75.2768 13.262 76.3112 13.001 77.4325 13.001C78.5538 13.001 79.5012 13.262 80.2745 13.784C81.0478 14.2867 81.6375 14.886 82.0435 15.582L81.8695 16.046L82.1305 13.494H84.6245V25.5H81.9275V22.368L82.2175 23.064C82.1402 23.2573 81.9662 23.5087 81.6955 23.818C81.4442 24.108 81.0962 24.4077 80.6515 24.717C80.2262 25.0263 79.7332 25.2873 79.1725 25.5C78.6118 25.6933 77.9835 25.79 77.2875 25.79ZM78.0125 23.557C78.6892 23.557 79.2982 23.4313 79.8395 23.18C80.3808 22.9287 80.8255 22.5807 81.1735 22.136C81.5408 21.672 81.7922 21.121 81.9275 20.483V18.134C81.7728 17.554 81.5022 17.0513 81.1155 16.626C80.7288 16.1813 80.2648 15.843 79.7235 15.611C79.1822 15.3597 78.5828 15.234 77.9255 15.234C77.2102 15.234 76.5528 15.408 75.9535 15.756C75.3542 16.104 74.8708 16.5873 74.5035 17.206C74.1555 17.8247 73.9815 18.5497 73.9815 19.381C73.9815 20.1543 74.1652 20.86 74.5325 21.498C74.8998 22.136 75.3928 22.6387 76.0115 23.006C76.6302 23.3733 77.2972 23.557 78.0125 23.557ZM89.3787 13.494L89.6107 16.191L89.4947 15.959C89.9394 15.0503 90.5677 14.335 91.3797 13.813C92.211 13.291 93.1584 13.03 94.2217 13.03C94.8984 13.03 95.4977 13.1363 96.0197 13.349C96.5417 13.5617 96.967 13.871 97.2957 14.277C97.6437 14.6637 97.866 15.147 97.9627 15.727L97.8177 15.814C98.2817 14.944 98.9197 14.2673 99.7317 13.784C100.563 13.2813 101.433 13.03 102.342 13.03C103.521 13.03 104.449 13.3683 105.126 14.045C105.822 14.7023 106.179 15.5627 106.199 16.626V25.5H103.502V17.583C103.482 16.9643 103.328 16.452 103.038 16.046C102.767 15.6207 102.284 15.3887 101.588 15.35C100.892 15.35 100.263 15.5627 99.7027 15.988C99.1614 16.4133 98.736 16.9643 98.4267 17.641C98.1174 18.2983 97.953 19.0137 97.9337 19.787V25.5H95.2367V17.583C95.2174 16.9643 95.053 16.452 94.7437 16.046C94.4537 15.6207 93.9607 15.3887 93.2647 15.35C92.5494 15.35 91.921 15.5627 91.3797 15.988C90.8384 16.4133 90.413 16.9643 90.1037 17.641C89.8137 18.3177 89.6687 19.0427 89.6687 19.816V25.5H86.9717V13.494H89.3787ZM114.15 25.79C112.778 25.79 111.598 25.5193 110.612 24.978C109.626 24.4173 108.863 23.6633 108.321 22.716C107.799 21.7493 107.538 20.6473 107.538 19.41C107.538 18.2307 107.838 17.1577 108.437 16.191C109.037 15.2243 109.839 14.451 110.844 13.871C111.85 13.291 112.971 13.001 114.208 13.001C115.794 13.001 117.108 13.465 118.152 14.393C119.196 15.321 119.902 16.597 120.269 18.221L110.38 21.701L109.742 20.106L117.862 17.148L117.282 17.525C117.05 16.887 116.664 16.336 116.122 15.872C115.581 15.3887 114.875 15.147 114.005 15.147C113.271 15.147 112.613 15.3307 112.033 15.698C111.453 16.046 110.999 16.5293 110.67 17.148C110.342 17.7667 110.177 18.4723 110.177 19.265C110.177 20.0963 110.351 20.831 110.699 21.469C111.047 22.0877 111.521 22.5807 112.12 22.948C112.739 23.296 113.435 23.47 114.208 23.47C114.73 23.47 115.233 23.3733 115.716 23.18C116.219 22.9867 116.683 22.7353 117.108 22.426L118.355 24.427C117.756 24.833 117.079 25.1617 116.325 25.413C115.591 25.6643 114.866 25.79 114.15 25.79ZM120.459 4.533H134.379V7.23H128.753V25.5H125.94V7.23H120.459V4.533ZM136.539 13.494L136.8 16.974L136.655 16.51C136.964 15.7753 137.409 15.1567 137.989 14.654C138.588 14.132 139.207 13.7357 139.845 13.465C140.502 13.175 141.072 13.03 141.556 13.03L141.411 15.698C140.502 15.64 139.7 15.814 139.004 16.22C138.327 16.626 137.786 17.1673 137.38 17.844C136.993 18.5207 136.8 19.2457 136.8 20.019V25.5H134.132V13.494H136.539ZM147.42 25.79C146.299 25.79 145.274 25.5483 144.346 25.065C143.437 24.5817 142.712 23.876 142.171 22.948C141.649 22.0007 141.388 20.8503 141.388 19.497C141.388 18.163 141.668 17.0127 142.229 16.046C142.79 15.06 143.534 14.306 144.462 13.784C145.409 13.262 146.444 13.001 147.565 13.001C148.686 13.001 149.634 13.262 150.407 13.784C151.18 14.2867 151.77 14.886 152.176 15.582L152.002 16.046L152.263 13.494H154.757V25.5H152.06V22.368L152.35 23.064C152.273 23.2573 152.099 23.5087 151.828 23.818C151.577 24.108 151.229 24.4077 150.784 24.717C150.359 25.0263 149.866 25.2873 149.305 25.5C148.744 25.6933 148.116 25.79 147.42 25.79ZM148.145 23.557C148.822 23.557 149.431 23.4313 149.972 23.18C150.513 22.9287 150.958 22.5807 151.306 22.136C151.673 21.672 151.925 21.121 152.06 20.483V18.134C151.905 17.554 151.635 17.0513 151.248 16.626C150.861 16.1813 150.397 15.843 149.856 15.611C149.315 15.3597 148.715 15.234 148.058 15.234C147.343 15.234 146.685 15.408 146.086 15.756C145.487 16.104 145.003 16.5873 144.636 17.206C144.288 17.8247 144.114 18.5497 144.114 19.381C144.114 20.1543 144.298 20.86 144.665 21.498C145.032 22.136 145.525 22.6387 146.144 23.006C146.763 23.3733 147.43 23.557 148.145 23.557ZM161.976 25.79C160.874 25.79 159.869 25.529 158.96 25.007C158.071 24.4657 157.365 23.7117 156.843 22.745C156.321 21.759 156.06 20.628 156.06 19.352C156.06 18.018 156.331 16.8773 156.872 15.93C157.433 14.9827 158.187 14.2577 159.134 13.755C160.081 13.2523 161.145 13.001 162.324 13.001C163.271 13.001 164.17 13.204 165.021 13.61C165.891 14.016 166.568 14.5767 167.051 15.292L166.935 16.249V3.054H169.603V25.5H166.906V22.513L167.196 23.267C166.635 24.0017 165.91 24.6107 165.021 25.094C164.132 25.558 163.117 25.79 161.976 25.79ZM162.817 23.499C163.532 23.499 164.17 23.3733 164.731 23.122C165.292 22.8513 165.756 22.484 166.123 22.02C166.49 21.556 166.751 21.005 166.906 20.367V18.105C166.751 17.525 166.471 17.0223 166.065 16.597C165.678 16.1523 165.205 15.8043 164.644 15.553C164.103 15.2823 163.494 15.147 162.817 15.147C162.082 15.147 161.406 15.3307 160.787 15.698C160.188 16.046 159.704 16.5293 159.337 17.148C158.97 17.7667 158.786 18.482 158.786 19.294C158.786 20.0867 158.97 20.802 159.337 21.44C159.704 22.0587 160.197 22.5613 160.816 22.948C161.435 23.3153 162.102 23.499 162.817 23.499ZM177.543 25.79C176.17 25.79 174.991 25.5193 174.005 24.978C173.019 24.4173 172.255 23.6633 171.714 22.716C171.192 21.7493 170.931 20.6473 170.931 19.41C170.931 18.2307 171.23 17.1577 171.83 16.191C172.429 15.2243 173.231 14.451 174.237 13.871C175.242 13.291 176.363 13.001 177.601 13.001C179.186 13.001 180.501 13.465 181.545 14.393C182.589 15.321 183.294 16.597 183.662 18.221L173.773 21.701L173.135 20.106L181.255 17.148L180.675 17.525C180.443 16.887 180.056 16.336 179.515 15.872C178.973 15.3887 178.268 15.147 177.398 15.147C176.663 15.147 176.006 15.3307 175.426 15.698C174.846 16.046 174.391 16.5293 174.063 17.148C173.734 17.7667 173.57 18.4723 173.57 19.265C173.57 20.0963 173.744 20.831 174.092 21.469C174.44 22.0877 174.913 22.5807 175.513 22.948C176.131 23.296 176.827 23.47 177.601 23.47C178.123 23.47 178.625 23.3733 179.109 23.18C179.611 22.9867 180.075 22.7353 180.501 22.426L181.748 24.427C181.148 24.833 180.472 25.1617 179.718 25.413C178.983 25.6643 178.258 25.79 177.543 25.79ZM187.128 13.494L187.389 16.974L187.244 16.51C187.553 15.7753 187.998 15.1567 188.578 14.654C189.177 14.132 189.796 13.7357 190.434 13.465C191.091 13.175 191.662 13.03 192.145 13.03L192 15.698C191.091 15.64 190.289 15.814 189.593 16.22C188.916 16.626 188.375 17.1673 187.969 17.844C187.582 18.5207 187.389 19.2457 187.389 20.019V25.5H184.721V13.494H187.128ZM196.668 25.732C195.818 25.732 194.986 25.587 194.174 25.297C193.382 24.9877 192.724 24.5333 192.202 23.934L193.333 22.368C193.836 22.8513 194.348 23.2187 194.87 23.47C195.412 23.702 195.943 23.818 196.465 23.818C196.852 23.818 197.21 23.7697 197.538 23.673C197.867 23.5763 198.128 23.4217 198.321 23.209C198.534 22.977 198.64 22.6677 198.64 22.281C198.64 21.8557 198.495 21.5173 198.205 21.266C197.935 21.0147 197.577 20.8117 197.132 20.657C196.707 20.5023 196.253 20.3573 195.769 20.222C194.783 19.8933 194.029 19.439 193.507 18.859C192.985 18.279 192.724 17.5733 192.724 16.742C192.724 16.104 192.879 15.5143 193.188 14.973C193.517 14.4123 193.991 13.958 194.609 13.61C195.247 13.262 196.03 13.088 196.958 13.088C197.79 13.088 198.534 13.1943 199.191 13.407C199.849 13.6003 200.467 13.929 201.047 14.393L199.974 16.075C199.626 15.7077 199.211 15.437 198.727 15.263C198.244 15.089 197.809 14.9923 197.422 14.973C197.094 14.9537 196.775 15.002 196.465 15.118C196.175 15.234 195.934 15.3983 195.74 15.611C195.547 15.8237 195.45 16.075 195.45 16.365C195.45 16.771 195.586 17.0997 195.856 17.351C196.127 17.6023 196.475 17.8053 196.9 17.96C197.345 18.0953 197.78 18.2403 198.205 18.395C198.805 18.569 199.336 18.801 199.8 19.091C200.264 19.381 200.632 19.7387 200.902 20.164C201.192 20.5893 201.337 21.121 201.337 21.759C201.337 22.4743 201.163 23.1413 200.815 23.76C200.487 24.3593 199.974 24.8427 199.278 25.21C198.602 25.558 197.732 25.732 196.668 25.732ZM201.431 23.963C201.431 23.5377 201.586 23.18 201.895 22.89C202.224 22.5807 202.581 22.426 202.968 22.426C203.316 22.426 203.645 22.5807 203.954 22.89C204.283 23.18 204.447 23.5377 204.447 23.963C204.447 24.427 204.283 24.804 203.954 25.094C203.645 25.3647 203.316 25.5 202.968 25.5C202.581 25.5 202.224 25.3647 201.895 25.094C201.586 24.804 201.431 24.427 201.431 23.963ZM215.089 24.398C214.548 24.8233 213.9 25.1617 213.146 25.413C212.392 25.6643 211.638 25.79 210.884 25.79C209.569 25.79 208.419 25.529 207.433 25.007C206.447 24.485 205.674 23.76 205.113 22.832C204.572 21.8847 204.301 20.773 204.301 19.497C204.301 18.221 204.591 17.1093 205.171 16.162C205.77 15.2147 206.544 14.4897 207.491 13.987C208.458 13.465 209.492 13.204 210.594 13.204C211.561 13.204 212.421 13.3393 213.175 13.61C213.948 13.8807 214.606 14.248 215.147 14.712L213.813 16.452C213.465 16.1813 213.04 15.9397 212.537 15.727C212.034 15.5143 211.464 15.408 210.826 15.408C210.13 15.408 209.482 15.5917 208.883 15.959C208.303 16.307 207.839 16.7903 207.491 17.409C207.162 18.0277 206.998 18.7237 206.998 19.497C206.998 20.2317 207.172 20.918 207.52 21.556C207.868 22.1747 208.351 22.6677 208.97 23.035C209.589 23.383 210.294 23.557 211.087 23.557C211.609 23.557 212.083 23.4797 212.508 23.325C212.953 23.1703 213.349 22.9577 213.697 22.687L215.089 24.398ZM215.207 19.381C215.207 18.1823 215.487 17.0997 216.048 16.133C216.628 15.1663 217.42 14.4027 218.426 13.842C219.431 13.2813 220.572 13.001 221.848 13.001C223.162 13.001 224.313 13.2813 225.299 13.842C226.285 14.4027 227.048 15.1663 227.59 16.133C228.131 17.0997 228.402 18.1823 228.402 19.381C228.402 20.5797 228.131 21.672 227.59 22.658C227.048 23.6247 226.275 24.3883 225.27 24.949C224.284 25.5097 223.133 25.79 221.819 25.79C220.543 25.79 219.402 25.529 218.397 25.007C217.411 24.4657 216.628 23.7213 216.048 22.774C215.487 21.8073 215.207 20.6763 215.207 19.381ZM217.904 19.41C217.904 20.1833 218.078 20.889 218.426 21.527C218.774 22.1457 219.238 22.6387 219.818 23.006C220.417 23.3733 221.074 23.557 221.79 23.557C222.544 23.557 223.211 23.3733 223.791 23.006C224.39 22.6387 224.854 22.1457 225.183 21.527C225.511 20.889 225.676 20.1833 225.676 19.41C225.676 18.6367 225.511 17.9407 225.183 17.322C224.854 16.684 224.39 16.1813 223.791 15.814C223.211 15.4273 222.544 15.234 221.79 15.234C221.055 15.234 220.388 15.4273 219.789 15.814C219.209 16.2007 218.745 16.713 218.397 17.351C218.068 17.9697 217.904 18.656 217.904 19.41ZM232.14 13.494L232.372 16.191L232.256 15.959C232.701 15.0503 233.329 14.335 234.141 13.813C234.973 13.291 235.92 13.03 236.983 13.03C237.66 13.03 238.259 13.1363 238.781 13.349C239.303 13.5617 239.729 13.871 240.057 14.277C240.405 14.6637 240.628 15.147 240.724 15.727L240.579 15.814C241.043 14.944 241.681 14.2673 242.493 13.784C243.325 13.2813 244.195 13.03 245.103 13.03C246.283 13.03 247.211 13.3683 247.887 14.045C248.583 14.7023 248.941 15.5627 248.96 16.626V25.5H246.263V17.583C246.244 16.9643 246.089 16.452 245.799 16.046C245.529 15.6207 245.045 15.3887 244.349 15.35C243.653 15.35 243.025 15.5627 242.464 15.988C241.923 16.4133 241.498 16.9643 241.188 17.641C240.879 18.2983 240.715 19.0137 240.695 19.787V25.5H237.998V17.583C237.979 16.9643 237.815 16.452 237.505 16.046C237.215 15.6207 236.722 15.3887 236.026 15.35C235.311 15.35 234.683 15.5627 234.141 15.988C233.6 16.4133 233.175 16.9643 232.865 17.641C232.575 18.3177 232.43 19.0427 232.43 19.816V25.5H229.733V13.494H232.14Z" fill="white"/>
</svg>
